<svg width="36" height="36" viewBox="0 0 36 36" fill="none" xmlns="http://www.w3.org/2000/svg">
<g clip-path="url(#clip0_17_1936)">
<g clip-path="url(#clip1_17_1936)">
<path fill-rule="evenodd" clip-rule="evenodd" d="M18 36C27.941 36 36 27.941 36 18C36 8.059 27.941 0 18 0C8.059 0 0 8.059 0 18C0 27.941 8.059 36 18 36Z" fill="#FAFAFA"/>
<path fill-rule="evenodd" clip-rule="evenodd" d="M18 11.56C19.972 11.56 21.302 12.412 22.06 13.123L25.023 10.23C23.203 8.538 20.835 7.5 18 7.5C16.0536 7.49961 14.1454 8.04066 12.4889 9.06265C10.8324 10.0846 9.49284 11.5473 8.62 13.287L12.015 15.923C12.867 13.392 15.223 11.56 18 11.56Z" fill="#EA4335"/>
<path fill-rule="evenodd" clip-rule="evenodd" d="M28.08 18.2329C28.08 17.3699 28.01 16.7399 27.858 16.0869H18V19.9829H23.787C23.67 20.9519 23.04 22.4099 21.64 23.3899L24.953 25.9569C26.937 24.1249 28.08 21.4299 28.08 18.2329Z" fill="#4285F4"/>
<path fill-rule="evenodd" clip-rule="evenodd" d="M12.027 20.0771C11.7976 19.4086 11.6793 18.7069 11.677 18.0001C11.677 17.2771 11.805 16.5771 12.015 15.9231L8.62 13.2871C7.88477 14.7495 7.50125 16.3633 7.5 18.0001C7.5 19.6921 7.908 21.2901 8.62 22.7131L12.027 20.0771Z" fill="#FBBC05"/>
<path fill-rule="evenodd" clip-rule="evenodd" d="M18 28.5001C20.835 28.5001 23.215 27.5671 24.953 25.9571L21.64 23.3901C20.753 24.0081 19.563 24.4401 18 24.4401C15.223 24.4401 12.867 22.6081 12.027 20.0771L8.632 22.7131C10.358 26.1431 13.893 28.5001 18 28.5001Z" fill="#34A853"/>
</g>
</g>
<defs>
<clipPath id="clip0_17_1936">
<rect width="36" height="36" fill="white"/>
</clipPath>
<clipPath id="clip1_17_1936">
<rect width="36" height="36" fill="white"/>
</clipPath>
</defs>
</svg>
