<svg width="20" height="20" viewBox="0 0 20 20" fill="none" xmlns="http://www.w3.org/2000/svg">
<rect width="20" height="20" fill="#F2F2F2"/>
<path d="M7.40527 17.7773C8.09563 17.7773 8.65527 17.2177 8.65527 16.5273C8.65527 15.837 8.09563 15.2773 7.40527 15.2773C6.71492 15.2773 6.15527 15.837 6.15527 16.5273C6.15527 17.2177 6.71492 17.7773 7.40527 17.7773Z" fill="#010101"/>
<path d="M15 17.7773C15.6904 17.7773 16.25 17.2177 16.25 16.5273C16.25 15.837 15.6904 15.2773 15 15.2773C14.3096 15.2773 13.75 15.837 13.75 16.5273C13.75 17.2177 14.3096 17.7773 15 17.7773Z" fill="#010101"/>
<path d="M18.3774 2.98305C18.3257 2.91933 18.2605 2.86784 18.1866 2.8323C18.1126 2.79676 18.0317 2.77804 17.9496 2.7775H6.38295L6.74406 3.88861H17.2218L15.7385 10.5553H7.40517L4.86628 2.51639C4.83882 2.43109 4.79113 2.3537 4.72728 2.29082C4.66343 2.22794 4.58532 2.18143 4.49961 2.15528L2.22184 1.45528C2.1518 1.43375 2.07821 1.42624 2.00526 1.43316C1.93232 1.44008 1.86145 1.46129 1.79671 1.4956C1.66596 1.56488 1.56808 1.68327 1.52461 1.82472C1.48115 1.96617 1.49565 2.11909 1.56494 2.24985C1.63422 2.3806 1.75261 2.47848 1.89406 2.52194L3.8885 3.13305L6.4385 11.1886L5.52739 11.9331L5.45517 12.0053C5.2298 12.265 5.10206 12.5952 5.09395 12.9389C5.08583 13.2827 5.19786 13.6186 5.41073 13.8886C5.56215 14.0728 5.75456 14.2189 5.97258 14.3154C6.1906 14.4118 6.42817 14.4559 6.66628 14.4442H15.9385C16.0858 14.4442 16.2272 14.3856 16.3313 14.2814C16.4355 14.1773 16.4941 14.036 16.4941 13.8886C16.4941 13.7413 16.4355 13.6 16.3313 13.4958C16.2272 13.3916 16.0858 13.3331 15.9385 13.3331H6.57739C6.51342 13.3309 6.45109 13.3122 6.39642 13.2789C6.34176 13.2456 6.29661 13.1988 6.26533 13.1429C6.23406 13.0871 6.21771 13.0241 6.21788 12.9601C6.21804 12.8961 6.23472 12.8332 6.26628 12.7775L7.60517 11.6664H16.1829C16.3114 11.6695 16.4369 11.6281 16.5382 11.5491C16.6395 11.47 16.7103 11.3584 16.7385 11.2331L18.4996 3.45528C18.5165 3.37245 18.5143 3.28687 18.4931 3.20503C18.4719 3.1232 18.4323 3.04728 18.3774 2.98305Z" fill="#010101"/>
</svg>
